G75*
G70*
%OFA0B0*%
%FSLAX24Y24*%
%IPPOS*%
%LPD*%
%AMOC8*
5,1,8,0,0,1.08239X$1,22.5*
%
%ADD10R,0.0740X0.0740*%
%ADD11C,0.0740*%
%ADD12C,0.0100*%
D10*
X002150Y001150D03*
X002150Y007150D03*
D11*
X003150Y007150D03*
X004150Y007150D03*
X005150Y007150D03*
X005150Y001150D03*
X004150Y001150D03*
X003150Y001150D03*
D12*
X000600Y000600D02*
X000600Y007700D01*
X008700Y007700D01*
X008700Y000600D01*
X000600Y000600D01*
X000600Y000635D02*
X001685Y000635D01*
X001710Y000610D02*
X002590Y000610D01*
X002690Y000710D01*
X002690Y000849D01*
X002692Y000844D01*
X002844Y000692D01*
X003043Y000610D01*
X003257Y000610D01*
X003456Y000692D01*
X003608Y000844D01*
X003650Y000946D01*
X003692Y000844D01*
X003844Y000692D01*
X004043Y000610D01*
X004257Y000610D01*
X004456Y000692D01*
X004608Y000844D01*
X004650Y000946D01*
X004692Y000844D01*
X004844Y000692D01*
X005043Y000610D01*
X005257Y000610D01*
X005456Y000692D01*
X005608Y000844D01*
X005690Y001043D01*
X005690Y001257D01*
X005608Y001456D01*
X005456Y001608D01*
X005257Y001690D01*
X005043Y001690D01*
X004844Y001608D01*
X004692Y001456D01*
X004650Y001354D01*
X004608Y001456D01*
X004456Y001608D01*
X004257Y001690D01*
X004043Y001690D01*
X003844Y001608D01*
X003692Y001456D01*
X003650Y001354D01*
X003608Y001456D01*
X003456Y001608D01*
X003257Y001690D01*
X003043Y001690D01*
X002844Y001608D01*
X002692Y001456D01*
X002690Y001451D01*
X002690Y001590D01*
X002590Y001690D01*
X001710Y001690D01*
X001610Y001590D01*
X001610Y000710D01*
X001710Y000610D01*
X001610Y000734D02*
X000600Y000734D01*
X000600Y000832D02*
X001610Y000832D01*
X001610Y000931D02*
X000600Y000931D01*
X000600Y001029D02*
X001610Y001029D01*
X001610Y001128D02*
X000600Y001128D01*
X000600Y001226D02*
X001610Y001226D01*
X001610Y001325D02*
X000600Y001325D01*
X000600Y001423D02*
X001610Y001423D01*
X001610Y001522D02*
X000600Y001522D01*
X000600Y001620D02*
X001640Y001620D01*
X002660Y001620D02*
X002874Y001620D01*
X002758Y001522D02*
X002690Y001522D01*
X002690Y000832D02*
X002704Y000832D01*
X002690Y000734D02*
X002803Y000734D01*
X002982Y000635D02*
X002615Y000635D01*
X003318Y000635D02*
X003982Y000635D01*
X003803Y000734D02*
X003497Y000734D01*
X003596Y000832D02*
X003704Y000832D01*
X003656Y000931D02*
X003644Y000931D01*
X003621Y001423D02*
X003679Y001423D01*
X003758Y001522D02*
X003542Y001522D01*
X003426Y001620D02*
X003874Y001620D01*
X004426Y001620D02*
X004874Y001620D01*
X004758Y001522D02*
X004542Y001522D01*
X004621Y001423D02*
X004679Y001423D01*
X004656Y000931D02*
X004644Y000931D01*
X004596Y000832D02*
X004704Y000832D01*
X004803Y000734D02*
X004497Y000734D01*
X004318Y000635D02*
X004982Y000635D01*
X005318Y000635D02*
X008700Y000635D01*
X008700Y000734D02*
X005497Y000734D01*
X005596Y000832D02*
X008700Y000832D01*
X008700Y000931D02*
X005644Y000931D01*
X005684Y001029D02*
X008700Y001029D01*
X008700Y001128D02*
X005690Y001128D01*
X005690Y001226D02*
X008700Y001226D01*
X008700Y001325D02*
X005662Y001325D01*
X005621Y001423D02*
X008700Y001423D01*
X008700Y001522D02*
X005542Y001522D01*
X005426Y001620D02*
X008700Y001620D01*
X008700Y001719D02*
X000600Y001719D01*
X000600Y001817D02*
X008700Y001817D01*
X008700Y001916D02*
X000600Y001916D01*
X000600Y002014D02*
X008700Y002014D01*
X008700Y002113D02*
X000600Y002113D01*
X000600Y002211D02*
X008700Y002211D01*
X008700Y002310D02*
X000600Y002310D01*
X000600Y002408D02*
X008700Y002408D01*
X008700Y002507D02*
X000600Y002507D01*
X000600Y002605D02*
X008700Y002605D01*
X008700Y002704D02*
X000600Y002704D01*
X000600Y002802D02*
X008700Y002802D01*
X008700Y002901D02*
X000600Y002901D01*
X000600Y002999D02*
X008700Y002999D01*
X008700Y003098D02*
X000600Y003098D01*
X000600Y003196D02*
X008700Y003196D01*
X008700Y003295D02*
X000600Y003295D01*
X000600Y003393D02*
X008700Y003393D01*
X008700Y003492D02*
X000600Y003492D01*
X000600Y003590D02*
X008700Y003590D01*
X008700Y003689D02*
X000600Y003689D01*
X000600Y003787D02*
X008700Y003787D01*
X008700Y003886D02*
X000600Y003886D01*
X000600Y003984D02*
X008700Y003984D01*
X008700Y004083D02*
X000600Y004083D01*
X000600Y004181D02*
X008700Y004181D01*
X008700Y004280D02*
X000600Y004280D01*
X000600Y004378D02*
X008700Y004378D01*
X008700Y004477D02*
X000600Y004477D01*
X000600Y004575D02*
X008700Y004575D01*
X008700Y004674D02*
X000600Y004674D01*
X000600Y004772D02*
X008700Y004772D01*
X008700Y004871D02*
X000600Y004871D01*
X000600Y004969D02*
X008700Y004969D01*
X008700Y005068D02*
X000600Y005068D01*
X000600Y005166D02*
X008700Y005166D01*
X008700Y005265D02*
X000600Y005265D01*
X000600Y005363D02*
X008700Y005363D01*
X008700Y005462D02*
X000600Y005462D01*
X000600Y005560D02*
X008700Y005560D01*
X008700Y005659D02*
X000600Y005659D01*
X000600Y005757D02*
X008700Y005757D01*
X008700Y005856D02*
X000600Y005856D01*
X000600Y005954D02*
X008700Y005954D01*
X008700Y006053D02*
X000600Y006053D01*
X000600Y006151D02*
X008700Y006151D01*
X008700Y006250D02*
X000600Y006250D01*
X000600Y006348D02*
X008700Y006348D01*
X008700Y006447D02*
X000600Y006447D01*
X000600Y006545D02*
X008700Y006545D01*
X008700Y006644D02*
X005274Y006644D01*
X005272Y006643D02*
X005350Y006668D01*
X005423Y006705D01*
X005489Y006753D01*
X005547Y006811D01*
X005595Y006877D01*
X005632Y006950D01*
X005657Y007028D01*
X005669Y007100D01*
X005200Y007100D01*
X005200Y007200D01*
X005100Y007200D01*
X005100Y007669D01*
X005028Y007657D01*
X004950Y007632D01*
X004877Y007595D01*
X004811Y007547D01*
X004753Y007489D01*
X004705Y007423D01*
X004668Y007350D01*
X004661Y007328D01*
X004608Y007456D01*
X004456Y007608D01*
X004257Y007690D01*
X004043Y007690D01*
X003844Y007608D01*
X003692Y007456D01*
X003650Y007354D01*
X003608Y007456D01*
X003456Y007608D01*
X003257Y007690D01*
X003043Y007690D01*
X002844Y007608D01*
X002692Y007456D01*
X002690Y007451D01*
X002690Y007590D01*
X002590Y007690D01*
X001710Y007690D01*
X001610Y007590D01*
X001610Y006710D01*
X001710Y006610D01*
X002590Y006610D01*
X002690Y006710D01*
X002690Y006849D01*
X002692Y006844D01*
X002844Y006692D01*
X003043Y006610D01*
X003257Y006610D01*
X003456Y006692D01*
X003608Y006844D01*
X003650Y006946D01*
X003692Y006844D01*
X003844Y006692D01*
X004043Y006610D01*
X004257Y006610D01*
X004456Y006692D01*
X004608Y006844D01*
X004661Y006972D01*
X004668Y006950D01*
X004705Y006877D01*
X004753Y006811D01*
X004811Y006753D01*
X004877Y006705D01*
X004950Y006668D01*
X005028Y006643D01*
X005100Y006631D01*
X005100Y007100D01*
X005200Y007100D01*
X005200Y006631D01*
X005272Y006643D01*
X005200Y006644D02*
X005100Y006644D01*
X005026Y006644D02*
X004338Y006644D01*
X004506Y006742D02*
X004827Y006742D01*
X004732Y006841D02*
X004604Y006841D01*
X004647Y006939D02*
X004674Y006939D01*
X004659Y007333D02*
X004663Y007333D01*
X004618Y007432D02*
X004712Y007432D01*
X004795Y007530D02*
X004534Y007530D01*
X004406Y007629D02*
X004944Y007629D01*
X005100Y007629D02*
X005200Y007629D01*
X005200Y007669D02*
X005200Y007200D01*
X005669Y007200D01*
X005657Y007272D01*
X005632Y007350D01*
X005595Y007423D01*
X005547Y007489D01*
X005489Y007547D01*
X005423Y007595D01*
X005350Y007632D01*
X005272Y007657D01*
X005200Y007669D01*
X005200Y007530D02*
X005100Y007530D01*
X005100Y007432D02*
X005200Y007432D01*
X005200Y007333D02*
X005100Y007333D01*
X005100Y007235D02*
X005200Y007235D01*
X005200Y007136D02*
X008700Y007136D01*
X008700Y007038D02*
X005659Y007038D01*
X005626Y006939D02*
X008700Y006939D01*
X008700Y006841D02*
X005568Y006841D01*
X005473Y006742D02*
X008700Y006742D01*
X008700Y007235D02*
X005663Y007235D01*
X005637Y007333D02*
X008700Y007333D01*
X008700Y007432D02*
X005588Y007432D01*
X005505Y007530D02*
X008700Y007530D01*
X008700Y007629D02*
X005356Y007629D01*
X005200Y007038D02*
X005100Y007038D01*
X005100Y006939D02*
X005200Y006939D01*
X005200Y006841D02*
X005100Y006841D01*
X005100Y006742D02*
X005200Y006742D01*
X003962Y006644D02*
X003338Y006644D01*
X003506Y006742D02*
X003794Y006742D01*
X003696Y006841D02*
X003604Y006841D01*
X003647Y006939D02*
X003653Y006939D01*
X003682Y007432D02*
X003618Y007432D01*
X003534Y007530D02*
X003766Y007530D01*
X003894Y007629D02*
X003406Y007629D01*
X002894Y007629D02*
X002652Y007629D01*
X002690Y007530D02*
X002766Y007530D01*
X002696Y006841D02*
X002690Y006841D01*
X002690Y006742D02*
X002794Y006742D01*
X002962Y006644D02*
X002624Y006644D01*
X001676Y006644D02*
X000600Y006644D01*
X000600Y006742D02*
X001610Y006742D01*
X001610Y006841D02*
X000600Y006841D01*
X000600Y006939D02*
X001610Y006939D01*
X001610Y007038D02*
X000600Y007038D01*
X000600Y007136D02*
X001610Y007136D01*
X001610Y007235D02*
X000600Y007235D01*
X000600Y007333D02*
X001610Y007333D01*
X001610Y007432D02*
X000600Y007432D01*
X000600Y007530D02*
X001610Y007530D01*
X001648Y007629D02*
X000600Y007629D01*
M02*
