G75*
G70*
%OFA0B0*%
%FSLAX24Y24*%
%IPPOS*%
%LPD*%
%AMOC8*
5,1,8,0,0,1.08239X$1,22.5*
%
%ADD10R,0.0173X0.0528*%
%ADD11R,0.0394X0.0433*%
%ADD12R,0.0740X0.0740*%
%ADD13C,0.0740*%
%ADD14C,0.0100*%
D10*
X005718Y002643D03*
X005970Y002643D03*
X006222Y002643D03*
X006474Y002643D03*
X006726Y002643D03*
X006978Y002643D03*
X007230Y002643D03*
X007482Y002643D03*
X007482Y005557D03*
X007230Y005557D03*
X006978Y005557D03*
X006726Y005557D03*
X006474Y005557D03*
X006222Y005557D03*
X005970Y005557D03*
X005718Y005557D03*
D11*
X003100Y003765D03*
X003100Y004435D03*
X004600Y004435D03*
X004600Y003765D03*
D12*
X005100Y001100D03*
X005100Y007100D03*
D13*
X006100Y007100D03*
X007100Y007100D03*
X008100Y007100D03*
X008100Y001100D03*
X007100Y001100D03*
X006100Y001100D03*
D14*
X006120Y001100D01*
X006420Y001400D01*
X006420Y002600D01*
X006474Y002643D01*
X006726Y002643D02*
X006780Y002600D01*
X006780Y001400D01*
X007080Y001100D01*
X007100Y001100D01*
X008100Y001100D02*
X007020Y002180D01*
X007020Y002600D01*
X006978Y002643D01*
X007482Y002643D02*
X007500Y002660D01*
X007680Y002840D01*
X007680Y006560D01*
X007140Y007100D01*
X007100Y007100D01*
X006600Y007580D02*
X006600Y005600D01*
X006720Y005600D01*
X006726Y005557D01*
X006600Y005600D02*
X006480Y005600D01*
X006474Y005557D01*
X006420Y005600D01*
X006240Y005600D01*
X006222Y005557D01*
X006180Y005540D01*
X006180Y005240D01*
X005400Y004460D01*
X004620Y004460D01*
X004600Y004435D01*
X004560Y004460D01*
X003120Y004460D01*
X003100Y004435D01*
X003120Y003800D02*
X003100Y003765D01*
X003120Y003800D02*
X004560Y003800D01*
X004600Y003765D01*
X004620Y003800D01*
X005100Y003800D01*
X005100Y001100D01*
X005100Y003800D02*
X005520Y003800D01*
X006960Y005240D01*
X006960Y005540D01*
X006978Y005557D01*
X007020Y005600D01*
X007200Y005600D01*
X007230Y005557D01*
X007260Y005600D01*
X007440Y005600D01*
X007482Y005557D01*
X006000Y005600D02*
X005970Y005557D01*
X006000Y005600D02*
X006000Y007040D01*
X006060Y007100D01*
X006100Y007100D01*
X006600Y007580D02*
X007620Y007580D01*
X008100Y007100D01*
X005700Y005600D02*
X005718Y005557D01*
X005700Y005600D02*
X005100Y006200D01*
X005100Y007100D01*
M02*
